<?xml version="1.0" standalone="no"?>
<!DOCTYPE svg PUBLIC "-//W3C//DTD SVG 20010904//EN"
 "http://www.w3.org/TR/2001/REC-SVG-20010904/DTD/svg10.dtd">
<svg version="1.0" xmlns="http://www.w3.org/2000/svg"
 width="500.000000pt" height="500.000000pt" viewBox="0 0 500.000000 500.000000"
 preserveAspectRatio="xMidYMid meet">

<g transform="translate(0.000000,500.000000) scale(0.100000,-0.100000)"
fill="#000000" stroke="none">
<path d="M760 2500 l0 -480 1740 0 1740 0 0 480 0 480 -1740 0 -1740 0 0 -480z
m3450 0 l0 -450 -1715 0 -1715 0 0 450 0 450 1715 0 1715 0 0 -450z"/>
<path d="M850 2500 l0 -390 825 0 825 0 0 390 0 390 -825 0 -825 0 0 -390z
m712 130 c101 -28 128 -166 47 -235 -24 -19 -42 -25 -80 -25 -90 0 -139 46
-139 130 0 77 48 130 125 139 6 0 27 -4 47 -9z m-448 -75 c27 -41 50 -75 51
-75 1 0 24 34 51 75 74 113 84 106 84 -55 0 -123 -1 -130 -20 -130 -19 0 -20
7 -20 98 l0 97 -41 -62 c-23 -35 -48 -63 -55 -63 -7 0 -33 28 -56 63 l-43 62
-3 -97 c-2 -78 -6 -98 -17 -98 -12 0 -15 23 -15 130 0 161 10 168 84 55z m679
-34 l40 -104 42 104 c29 73 47 105 60 107 12 3 16 0 13 -9 -83 -210 -102 -250
-116 -247 -14 3 -112 223 -112 251 0 5 7 7 16 5 11 -2 31 -40 57 -107z m267
-21 c0 -109 -2 -130 -15 -130 -13 0 -15 21 -15 130 0 109 2 130 15 130 13 0
15 -21 15 -130z m260 115 c0 -12 -13 -15 -60 -15 l-60 0 0 -40 0 -40 55 0 c42
0 55 -3 55 -15 0 -12 -13 -15 -55 -15 l-55 0 0 -45 0 -45 65 0 c51 0 65 -3 65
-15 0 -12 -16 -15 -85 -15 l-85 0 0 130 0 130 80 0 c64 0 80 -3 80 -15z"/>
<path d="M1457 2580 c-48 -38 -44 -130 7 -165 11 -8 38 -15 59 -15 86 0 132
112 71 174 -34 33 -98 36 -137 6z"/>
<path d="M2990 2510 l0 -130 35 0 35 0 0 50 0 50 40 0 40 0 0 -50 0 -50 40 0
40 0 0 130 0 130 -40 0 -40 0 0 -45 0 -45 -40 0 -40 0 0 45 c0 45 0 45 -35 45
l-35 0 0 -130z"/>
<path d="M3270 2550 c0 -134 25 -172 115 -172 90 0 115 38 115 172 l0 90 -40
0 -39 0 -3 -92 -3 -93 -30 0 -30 0 -3 93 -3 92 -39 0 -40 0 0 -90z"/>
<path d="M3550 2510 l0 -130 80 0 c94 0 134 16 144 56 5 20 2 35 -12 54 -17
23 -18 28 -6 45 21 29 17 61 -12 84 -22 17 -41 21 -110 21 l-84 0 0 -130z
m138 53 c3 -20 -1 -23 -27 -23 -27 0 -31 4 -31 26 0 22 4 25 28 22 19 -2 28
-9 30 -25z m10 -88 c13 -13 -11 -35 -38 -35 -26 0 -30 4 -30 26 0 24 3 26 32
20 17 -3 34 -8 36 -11z"/>
</g>
</svg>
